<?xml version="1.0" encoding="utf-8"?>
<!-- Generator: Adobe Illustrator 16.0.0, SVG Export Plug-In . SVG Version: 6.00 Build 0)  -->
<!DOCTYPE svg PUBLIC "-//W3C//DTD SVG 1.1//EN" "http://www.w3.org/Graphics/SVG/1.1/DTD/svg11.dtd">
<svg version="1.1" id="Layer_1" xmlns="http://www.w3.org/2000/svg" xmlns:xlink="http://www.w3.org/1999/xlink" x="0px" y="0px"
	 width="512px" height="512px" viewBox="0 0 512 512" enable-background="new 0 0 512 512" xml:space="preserve">
 <path fill="#FFCCCC" d="M497.677,249.123c-21.54-7.603-52.637-15.466-90.1-16.675c18.369-24.139,35.818-49.242,50.344-72.993
	c43.35-70.886,54.2-115.573,33.152-136.604c-6.986-6.978-16.646-10.516-28.718-10.516c-45.603,0-134.513,55.898-203.766,111.934
	c-7.464-24.821-20.635-50.403-41.874-75.888c-2.323-2.786-6.048-3.977-9.554-3.063c-3.512,0.911-6.187,3.764-6.863,7.318
	c-6.934,36.655-27.753,118.042-82.779,173.482c-6.684,6.734-26.834,26.837-26.834,26.837
	c-36.458,36.461-44.513,90.438-24.424,134.784l-52.397,52.392c-7.818,7.824-7.818,20.509,0,28.333l31.595,31.58
	c7.816,7.826,20.501,7.826,28.319,0l52.417-52.41c15.459,7.003,32.32,10.844,49.617,10.854c31.93,0,62.556-12.684,85.135-35.264
	c0,0,20.151-20.096,26.826-26.836C313.686,370.221,402.359,285.3,496.323,267.17c4.156-0.815,7.255-4.288,7.572-8.511
	C504.206,254.437,501.662,250.524,497.677,249.123z M245.344,272.007c13.347-29.683,24.233-68.143,20.45-110.455
	C334.658,103.478,456.797,33.249,467.75,47s-36.244,104.523-103.377,187.123C328.087,238.149,287.773,249.233,245.344,272.007z"/>
 <g fill="#FFCCCC">
	<path d="M385.877,138.147c0.594,0.587,1.394,0.929,2.234,0.929c0.839,0,1.637-0.342,2.233-0.929l22.588-22.596
		c1.23-1.239,1.23-3.229,0-4.467l-10.109-10.109c-0.594-0.585-1.394-0.928-2.233-0.928c-0.838,0-1.638,0.342-2.232,0.928
		l-22.589,22.599c-1.231,1.238-1.231,3.227,0,4.465L385.877,138.147z"/>
	<path d="M333.323,161.574c0.596,0.588,1.394,0.93,2.233,0.93c0.84,0,1.64-0.342,2.235-0.93l22.595-22.595
		c1.231-1.239,1.241-3.229,0-4.468l-10.107-10.124c-0.595-0.588-1.394-0.93-2.233-0.93c-0.839,0-1.639,0.342-2.233,0.93
		l-22.596,22.596c-1.232,1.239-1.238,3.228,0,4.467L333.323,161.574z"/>
	<path d="M379.413,153.537c-0.596-0.588-1.394-0.929-2.233-0.929c-0.839,0-1.637,0.341-2.233,0.929l-22.588,22.597
		c-1.23,1.239-1.23,3.227,0,4.467l10.101,10.107c0.594,0.588,1.394,0.93,2.233,0.93c0.838,0,1.638-0.342,2.231-0.93l22.589-22.596
		c1.231-1.238,1.231-3.227,0-4.467L379.413,153.537z"/>
	<path d="M312.13,216.354l24.821-24.814c0.596-0.586,0.93-1.401,0.93-2.231c0-0.834-0.334-1.649-0.93-2.235l-10.106-10.108
		c-0.596-0.588-1.395-0.93-2.234-0.93c-0.84,0-1.64,0.342-2.233,0.93l-22.573,22.579c-1.238,1.241-1.238,3.229,0,4.468
		L312.13,216.354z"/>
</g>
</svg>
